<svg width="16" height="16" viewBox="0 0 16 16" fill="none" xmlns="http://www.w3.org/2000/svg">
<path fill-rule="evenodd" clip-rule="evenodd" d="M2.49093 8.95145C2.32114 8.82809 2.17183 8.67877 2.04847 8.50898C1.6665 7.98325 1.6665 7.23331 1.6665 5.73341V4.93341C1.6665 3.43352 1.6665 2.68358 2.04847 2.15784C2.17183 1.98805 2.32114 1.83874 2.49093 1.71538C3.01666 1.33341 3.76661 1.33341 5.2665 1.33341H8.94467C10.4805 1.33341 11.2484 1.33341 11.8788 1.6044C12.4599 1.85423 12.958 2.26425 13.3148 2.78659C13.7018 3.35316 13.8493 4.10678 14.1443 5.61403C14.4796 7.32731 14.6473 8.18399 14.4197 8.85578C14.2108 9.47222 13.7837 9.99099 13.2189 10.3143C12.6251 10.6543 11.7918 10.6663 10.1665 10.6667L9.95058 12.3942C9.78829 13.6925 8.68464 14.6667 7.37623 14.6667C7.00251 14.6667 6.67106 14.4267 6.55454 14.0716L4.98151 9.33331C3.66941 9.33178 2.98226 9.30842 2.49093 8.95145ZM5.9598 9.10626L7.47286 13.6639C8.23407 13.6181 8.86259 13.0358 8.9583 12.2701L9.28369 9.66696L10.1662 9.66673C10.9928 9.66652 11.5565 9.66252 11.9861 9.62223C12.4068 9.58278 12.602 9.51521 12.722 9.4465C13.0751 9.2444 13.342 8.92017 13.4725 8.5349C13.5187 8.39863 13.5476 8.1842 13.4989 7.73294C13.4492 7.27326 13.334 6.68008 13.1629 5.8061C13.0126 5.03824 12.9096 4.51494 12.7993 4.11076C12.6923 3.71846 12.5953 3.50619 12.489 3.35064C12.2393 2.985 11.8906 2.69798 11.4839 2.52311C11.3108 2.44871 11.0838 2.39431 10.6783 2.36462C10.2605 2.33403 9.7271 2.33341 8.94467 2.33341H5.9598V9.10626ZM4.9598 8.33328C4.30316 8.33235 3.87468 8.32448 3.55493 8.2837C3.25022 8.24484 3.13861 8.18594 3.07872 8.14243C2.99382 8.08075 2.91917 8.00609 2.85749 7.9212C2.811 7.85721 2.74696 7.7344 2.70843 7.3788C2.66788 7.00448 2.6665 6.50564 2.6665 5.73341V4.93341C2.6665 4.16119 2.66788 3.66235 2.70843 3.28803C2.74696 2.93243 2.811 2.80962 2.85749 2.74563C2.91917 2.66073 2.99382 2.58608 3.07872 2.5244C3.1427 2.47791 3.26551 2.41387 3.62112 2.37534C3.94339 2.34043 4.35795 2.33455 4.9598 2.3336V8.33328Z" fill="white"/>
</svg>
