<svg width="16" height="16" viewBox="0 0 16 16" fill="none" xmlns="http://www.w3.org/2000/svg">
<g id="thumb-up">
<path id="icon" fill-rule="evenodd" clip-rule="evenodd" d="M2.49093 7.04855C2.32114 7.17191 2.17183 7.32123 2.04847 7.49102C1.6665 8.01675 1.6665 8.76669 1.6665 10.2666V11.0666C1.6665 12.5665 1.6665 13.3164 2.04847 13.8422C2.17183 14.0119 2.32114 14.1613 2.49093 14.2846C3.01666 14.6666 3.76661 14.6666 5.2665 14.6666H8.94467C10.4805 14.6666 11.2484 14.6666 11.8788 14.3956C12.4599 14.1458 12.958 13.7357 13.3148 13.2134C13.7018 12.6468 13.8493 11.8932 14.1443 10.386C14.4796 8.67269 14.6473 7.81601 14.4197 7.14422C14.2108 6.52778 13.7837 6.00901 13.2189 5.68565C12.6251 5.34571 11.7918 5.33369 10.1665 5.33327L9.95058 3.60584C9.78829 2.30754 8.68464 1.33325 7.37623 1.33325C7.00251 1.33325 6.67106 1.57333 6.55454 1.92843L4.98151 6.66669C3.66941 6.66822 2.98226 6.69158 2.49093 7.04855ZM5.9598 6.89374L7.47286 2.33615C8.23407 2.38186 8.86259 2.96417 8.9583 3.72987L9.28369 6.33304L10.1662 6.33327C10.9928 6.33348 11.5565 6.33748 11.9861 6.37777C12.4068 6.41722 12.602 6.48479 12.722 6.5535C13.0751 6.7556 13.342 7.07983 13.4725 7.4651C13.5187 7.60137 13.5476 7.8158 13.4989 8.26706C13.4492 8.72674 13.334 9.31992 13.1629 10.1939C13.0126 10.9618 12.9096 11.4851 12.7993 11.8892C12.6923 12.2815 12.5953 12.4938 12.489 12.6494C12.2393 13.015 11.8906 13.302 11.4839 13.4769C11.3108 13.5513 11.0838 13.6057 10.6783 13.6354C10.2605 13.666 9.7271 13.6666 8.94467 13.6666H5.9598V6.89374ZM4.9598 7.66672C4.30316 7.66765 3.87468 7.67552 3.55493 7.7163C3.25022 7.75516 3.13861 7.81406 3.07872 7.85757C2.99382 7.91925 2.91917 7.99391 2.85749 8.0788C2.811 8.14279 2.74696 8.2656 2.70843 8.6212C2.66788 8.99552 2.6665 9.49436 2.6665 10.2666V11.0666C2.6665 11.8388 2.66788 12.3376 2.70843 12.712C2.74696 13.0676 2.811 13.1904 2.85749 13.2544C2.91917 13.3393 2.99382 13.4139 3.07872 13.4756C3.1427 13.5221 3.26551 13.5861 3.62112 13.6247C3.94339 13.6596 4.35795 13.6654 4.9598 13.6664V7.66672Z" fill="white"/>
</g>
</svg>
